<svg xmlns="http://www.w3.org/2000/svg" version="1.1" xmlns:xlink="http://www.w3.org/1999/xlink" width="512" height="512" x="0" y="0" viewBox="0 0 24 24" style="enable-background:new 0 0 512 512" xml:space="preserve" class=""><g transform="matrix(1.32,0,0,1.32,-3.839999999999998,-3.839999999999998)"><path d="M19 0H5C2.243 0 0 2.243 0 5v14c0 2.757 2.243 5 5 5h14c2.757 0 5-2.243 5-5V5c0-2.757-2.243-5-5-5Zm3 19c0 1.654-1.346 3-3 3H5c-1.654 0-3-1.346-3-3V5c0-1.654 1.346-3 3-3h14c1.654 0 3 1.346 3 3v14ZM9.5 4h-4C4.673 4 4 4.673 4 5.5v4c0 .827.673 1.5 1.5 1.5h4c.827 0 1.5-.673 1.5-1.5v-4c0-.827-.673-1.5-1.5-1.5ZM9 9H6V6h3v3Zm9.5-5h-4c-.827 0-1.5.673-1.5 1.5v4c0 .827.673 1.5 1.5 1.5h4c.827 0 1.5-.673 1.5-1.5v-4c0-.827-.673-1.5-1.5-1.5ZM18 9h-3V6h3v3Zm-8.5 4h-4c-.827 0-1.5.673-1.5 1.5v4c0 .827.673 1.5 1.5 1.5h4c.827 0 1.5-.673 1.5-1.5v-4c0-.827-.673-1.5-1.5-1.5ZM9 18H6v-3h3v3Zm9.5-5h-4c-.827 0-1.5.673-1.5 1.5v4c0 .827.673 1.5 1.5 1.5h4c.827 0 1.5-.673 1.5-1.5v-4c0-.827-.673-1.5-1.5-1.5Zm-.5 5h-3v-3h3v3Z" fill="#fff" opacity="1" data-original="#fff" class=""></path></g></svg>