<svg xmlns="http://www.w3.org/2000/svg" version="1.1" xmlns:xlink="http://www.w3.org/1999/xlink" width="512" height="512" x="0" y="0" viewBox="0 0 24 24" style="enable-background:new 0 0 512 512" xml:space="preserve" class=""><g><path d="M12 18.397c4.755 0 6.97-2.685 6.97-8.45S16.755 1.499 12 1.499s-6.969 2.685-6.969 8.45S7.245 18.398 12 18.398Zm0-14.899c2.353 0 4.02.635 4.669 3.354h-1.728a1 1 0 0 0 0 2h1.999c.02.344.03.708.03 1.096s-.01.752-.03 1.096h-1.999a1 1 0 0 0 0 2h1.728c-.649 2.719-2.316 3.354-4.669 3.354s-4.019-.635-4.669-3.354h1.727a1 1 0 0 0 0-2H7.06c-.02-.344-.03-.709-.03-1.096s.01-.752.03-1.096h1.998a1 1 0 0 0 0-2H7.331C7.98 4.133 9.647 3.498 12 3.498Z" fill="#ffffff" opacity="1" data-original="#000000" class=""></path><path d="M22.078 10.632a.998.998 0 0 0-1.075.919c-.578 7.398-5.215 8.951-9.003 8.951s-8.425-1.553-9.003-8.951a.988.988 0 0 0-1.075-.919 1 1 0 0 0-.919 1.075C1.764 21.45 8.947 22.501 12 22.501s10.236-1.052 10.997-10.794a1 1 0 0 0-.919-1.075Z" fill="#ffffff" opacity="1" data-original="#000000" class=""></path></g></svg>