<svg xmlns="http://www.w3.org/2000/svg" version="1.1" xmlns:xlink="http://www.w3.org/1999/xlink" width="512" height="512" x="0" y="0" viewBox="0 0 24 24" style="enable-background:new 0 0 512 512" xml:space="preserve" class=""><g><path d="M20 8c2.206 0 4-1.794 4-4s-1.794-4-4-4-4 1.794-4 4 1.794 4 4 4Zm0-6c1.103 0 2 .897 2 2s-.897 2-2 2-2-.897-2-2 .897-2 2-2Zm1.868 8.301a1.007 1.007 0 0 0-1.202-.745 1 1 0 0 0-.745 1.202l1.057 4.489a2.144 2.144 0 0 1-.365 1.893 2.184 2.184 0 0 1-1.748.86H5.135c-.67 0-1.294-.297-1.712-.815a2.133 2.133 0 0 1-.439-1.786l2.094-7.777c.74-3.31 3.642-5.621 7.056-5.621.43 0 .859.038 1.275.114a1 1 0 0 0 .357-1.969A9.157 9.157 0 0 0 12.133 0C7.776 0 4.072 2.955 3.136 7.144L1.042 14.92a4.14 4.14 0 0 0 .824 3.521 4.18 4.18 0 0 0 3.269 1.56h1.966c.465 2.279 2.484 4 4.899 4s4.434-1.721 4.899-4h1.965c1.32 0 2.537-.6 3.337-1.646a4.104 4.104 0 0 0 .713-3.605l-1.046-4.448ZM12 22a2.996 2.996 0 0 1-2.816-2h5.631a2.996 2.996 0 0 1-2.816 2Z" fill="#2e7ae0" opacity="1" data-original="#000000" class=""></path></g></svg>